<svg width="240" height="240" viewBox="0 0 240 240" fill="none" xmlns="http://www.w3.org/2000/svg">
<g clip-path="url(#clip0_414_383)">
<g clip-path="url(#clip1_414_383)">
<path d="M228 120C234.627 120 240.062 125.386 239.401 131.981C236.905 156.86 226.681 180.452 210.013 199.357C190.689 221.277 164.031 235.391 135.04 239.054C106.049 242.716 76.7183 235.674 52.55 219.25C28.3817 202.825 11.037 178.146 3.77002 149.843C-3.49699 121.54 -0.186925 91.5574 13.0792 65.5211C26.3454 39.4849 48.6559 19.1839 75.8251 8.42682C102.994 -2.33021 133.155 -2.80402 160.649 7.09431C184.363 15.6319 204.687 31.3797 218.86 51.9795C222.616 57.4394 220.449 64.7778 214.641 67.9706V67.9706C208.833 71.1634 201.595 68.9878 197.703 63.6235C186.444 48.1045 170.731 36.2321 152.519 29.6754C130.524 21.7568 106.395 22.1358 84.66 30.7415C62.9247 39.3471 45.0763 55.5879 34.4634 76.4169C23.8505 97.2459 21.2024 121.232 27.016 143.874C32.8296 166.517 46.7054 186.26 66.04 199.4C85.3746 212.54 108.839 218.173 132.032 215.243C155.225 212.313 176.551 201.021 192.011 183.486C204.811 168.967 212.861 150.993 215.251 131.969C216.077 125.394 221.373 120 228 120V120Z" fill="url(#paint0_linear_414_383)"/>
<path d="M89.1719 134.398C86.9086 134.398 84.8869 134.038 83.1066 133.318C81.3357 132.589 79.9437 131.604 78.9304 130.364C77.9266 129.114 77.4247 127.703 77.4247 126.131C77.4247 124.928 77.7136 123.825 78.2912 122.821C78.8689 121.817 79.6501 120.984 80.635 120.321C81.6293 119.649 82.7372 119.218 83.9588 119.028V118.801C82.3584 118.508 81.0469 117.764 80.0242 116.571C79.0109 115.378 78.5043 113.981 78.5043 112.381C78.5043 110.866 78.9636 109.516 79.8821 108.332C80.8102 107.149 82.0744 106.216 83.6747 105.534C85.2846 104.852 87.117 104.511 89.1719 104.511C91.2268 104.511 93.0545 104.852 94.6548 105.534C96.2647 106.216 97.5289 107.149 98.4475 108.332C99.3755 109.516 99.8395 110.866 99.8395 112.381C99.8395 113.991 99.3234 115.392 98.2912 116.585C97.2685 117.769 95.9664 118.508 94.385 118.801V119.028C95.5971 119.218 96.6956 119.649 97.6804 120.321C98.6747 120.984 99.4607 121.817 100.038 122.821C100.625 123.825 100.919 124.928 100.919 126.131C100.919 127.703 100.412 129.114 99.3992 130.364C98.3859 131.604 96.9939 132.589 95.223 133.318C93.4617 134.038 91.4446 134.398 89.1719 134.398ZM89.1719 129.412C90.0336 129.412 90.7912 129.251 91.4446 128.929C92.098 128.598 92.6094 128.138 92.9787 127.551C93.3575 126.964 93.5469 126.301 93.5469 125.562C93.5469 124.805 93.3575 124.133 92.9787 123.545C92.5999 122.958 92.0791 122.499 91.4162 122.168C90.7628 121.827 90.0147 121.656 89.1719 121.656C88.3386 121.656 87.5905 121.827 86.9276 122.168C86.2647 122.499 85.7439 122.958 85.3651 123.545C84.9863 124.133 84.7969 124.805 84.7969 125.562C84.7969 126.301 84.9816 126.964 85.3509 127.551C85.7297 128.129 86.2458 128.583 86.8992 128.915C87.562 129.246 88.3196 129.412 89.1719 129.412ZM89.1719 116.699C89.9105 116.699 90.5639 116.547 91.1321 116.244C91.7098 115.941 92.1596 115.52 92.4816 114.98C92.813 114.44 92.9787 113.83 92.9787 113.148C92.9787 112.466 92.813 111.865 92.4816 111.344C92.1596 110.823 91.7145 110.416 91.1463 110.122C90.5781 109.819 89.92 109.668 89.1719 109.668C88.4333 109.668 87.7751 109.819 87.1975 110.122C86.6198 110.416 86.17 110.823 85.848 111.344C85.5261 111.865 85.3651 112.466 85.3651 113.148C85.3651 113.83 85.5261 114.44 85.848 114.98C86.1795 115.51 86.634 115.932 87.2117 116.244C87.7893 116.547 88.4427 116.699 89.1719 116.699ZM115.976 134.398C113.855 134.398 111.97 134.014 110.322 133.247C108.675 132.48 107.373 131.424 106.416 130.08C105.469 128.735 104.977 127.191 104.939 125.449H111.757C111.814 126.519 112.25 127.381 113.064 128.034C113.878 128.678 114.849 129 115.976 129C116.857 129 117.638 128.806 118.32 128.418C119.001 128.029 119.536 127.485 119.925 126.784C120.313 126.074 120.502 125.259 120.493 124.341C120.502 123.403 120.308 122.584 119.911 121.884C119.522 121.183 118.983 120.638 118.291 120.25C117.609 119.852 116.823 119.653 115.933 119.653C115.09 119.644 114.29 119.829 113.533 120.207C112.785 120.586 112.216 121.102 111.828 121.756L105.621 120.591L106.885 104.909H125.55V110.577H112.666L111.999 117.438H112.169C112.652 116.633 113.429 115.97 114.499 115.449C115.578 114.919 116.804 114.653 118.178 114.653C119.92 114.653 121.473 115.061 122.837 115.875C124.21 116.68 125.289 117.797 126.075 119.227C126.871 120.657 127.268 122.295 127.268 124.142C127.268 126.14 126.795 127.911 125.848 129.455C124.911 130.998 123.594 132.21 121.899 133.091C120.214 133.962 118.239 134.398 115.976 134.398ZM147.421 128.545V127.011C147.421 125.818 147.677 124.715 148.188 123.702C148.709 122.688 149.462 121.874 150.447 121.259C151.432 120.643 152.634 120.335 154.055 120.335C155.504 120.335 156.72 120.643 157.705 121.259C158.7 121.865 159.448 122.674 159.95 123.688C160.461 124.691 160.717 125.799 160.717 127.011V128.545C160.717 129.739 160.461 130.842 159.95 131.855C159.438 132.868 158.685 133.683 157.691 134.298C156.697 134.914 155.485 135.222 154.055 135.222C152.615 135.222 151.403 134.914 150.418 134.298C149.433 133.683 148.685 132.868 148.174 131.855C147.672 130.842 147.421 129.739 147.421 128.545ZM151.952 127.011V128.545C151.952 129.152 152.099 129.734 152.393 130.293C152.696 130.851 153.25 131.131 154.055 131.131C154.879 131.131 155.433 130.861 155.717 130.321C156.001 129.772 156.143 129.18 156.143 128.545V127.011C156.143 126.377 156.005 125.78 155.731 125.222C155.466 124.653 154.907 124.369 154.055 124.369C153.259 124.369 152.71 124.653 152.407 125.222C152.104 125.78 151.952 126.377 151.952 127.011ZM132.336 111.898V110.364C132.336 109.152 132.596 108.044 133.117 107.04C133.648 106.027 134.405 105.217 135.39 104.611C136.375 103.995 137.568 103.688 138.969 103.688C140.418 103.688 141.635 103.995 142.62 104.611C143.614 105.217 144.367 106.027 144.879 107.04C145.39 108.044 145.646 109.152 145.646 110.364V111.898C145.646 113.11 145.385 114.218 144.864 115.222C144.353 116.225 143.6 117.026 142.606 117.622C141.612 118.219 140.399 118.517 138.969 118.517C137.54 118.517 136.327 118.214 135.333 117.608C134.348 117.002 133.6 116.197 133.089 115.193C132.587 114.189 132.336 113.091 132.336 111.898ZM136.91 110.364V111.898C136.91 112.532 137.057 113.124 137.35 113.673C137.653 114.213 138.193 114.483 138.969 114.483C139.803 114.483 140.357 114.213 140.631 113.673C140.916 113.124 141.058 112.532 141.058 111.898V110.364C141.058 109.729 140.925 109.133 140.66 108.574C140.395 108.006 139.831 107.722 138.969 107.722C138.174 107.722 137.63 108.01 137.336 108.588C137.052 109.166 136.91 109.758 136.91 110.364ZM134.481 134L154.481 104.909H158.359L138.359 134H134.481Z" fill="white"/>
</g>
</g>
<defs>
<linearGradient id="paint0_linear_414_383" x1="0" y1="120" x2="240" y2="120" gradientUnits="userSpaceOnUse">
<stop stop-color="#AA367C"/>
<stop offset="1" stop-color="#4A2FBD"/>
</linearGradient>
<clipPath id="clip0_414_383">
<rect width="240" height="240" fill="white"/>
</clipPath>
<clipPath id="clip1_414_383">
<rect width="240" height="240" fill="white"/>
</clipPath>
</defs>
</svg>
