<svg width="240" height="240" viewBox="0 0 240 240" fill="none" xmlns="http://www.w3.org/2000/svg">
<g clip-path="url(#clip0_414_390)">
<g clip-path="url(#clip1_414_390)">
<path d="M228 120C234.627 120 240.062 125.386 239.401 131.981C236.968 156.225 227.196 179.261 211.249 197.934C192.692 219.66 166.993 234.053 138.772 238.523C110.552 242.992 81.6621 237.246 57.3002 222.317C32.9382 207.388 14.7026 184.256 5.87322 157.082C-2.95613 129.908 -1.79972 100.475 9.13445 74.078C20.0686 47.6806 40.063 26.0508 65.5211 13.0792C90.9793 0.107632 120.231 -3.35448 148.013 3.31561C171.891 9.04801 193.337 21.9408 209.555 40.1254C213.966 45.0715 212.736 52.6237 207.374 56.5192V56.5192C202.012 60.4147 194.558 59.1636 190.024 54.3294C177.257 40.715 160.728 31.0501 142.411 26.6525C120.184 21.3164 96.7834 24.0861 76.4169 34.4634C56.0504 44.8406 40.0549 62.1444 31.3076 83.2624C22.5602 104.38 21.6351 127.926 28.6986 149.666C35.7621 171.405 50.3506 189.91 69.8401 201.853C89.3297 213.797 112.441 218.394 135.018 214.818C157.594 211.242 178.154 199.728 192.999 182.347C205.233 168.023 212.924 150.488 215.251 131.969C216.077 125.394 221.373 120 228 120V120Z" fill="url(#paint0_linear_414_390)"/>
<path d="M88.1367 134.398C85.8735 134.398 83.8517 134.038 82.0714 133.318C80.3006 132.589 78.9085 131.604 77.8953 130.364C76.8915 129.114 76.3896 127.703 76.3896 126.131C76.3896 124.928 76.6784 123.825 77.2561 122.821C77.8337 121.817 78.615 120.984 79.5998 120.321C80.5941 119.649 81.7021 119.218 82.9237 119.028V118.801C81.3233 118.508 80.0117 117.764 78.989 116.571C77.9758 115.378 77.4691 113.981 77.4691 112.381C77.4691 110.866 77.9284 109.516 78.847 108.332C79.775 107.149 81.0392 106.216 82.6396 105.534C84.2494 104.852 86.0818 104.511 88.1367 104.511C90.1917 104.511 92.0193 104.852 93.6197 105.534C95.2295 106.216 96.4937 107.149 97.4123 108.332C98.3403 109.516 98.8044 110.866 98.8044 112.381C98.8044 113.991 98.2883 115.392 97.2561 116.585C96.2333 117.769 94.9312 118.508 93.3498 118.801V119.028C94.5619 119.218 95.6604 119.649 96.6453 120.321C97.6396 120.984 98.4256 121.817 99.0032 122.821C99.5903 123.825 99.8839 124.928 99.8839 126.131C99.8839 127.703 99.3773 129.114 98.364 130.364C97.3508 131.604 95.9587 132.589 94.1879 133.318C92.4265 134.038 90.4095 134.398 88.1367 134.398ZM88.1367 129.412C88.9985 129.412 89.7561 129.251 90.4095 128.929C91.0629 128.598 91.5742 128.138 91.9436 127.551C92.3223 126.964 92.5117 126.301 92.5117 125.562C92.5117 124.805 92.3223 124.133 91.9436 123.545C91.5648 122.958 91.0439 122.499 90.3811 122.168C89.7276 121.827 88.9795 121.656 88.1367 121.656C87.3034 121.656 86.5553 121.827 85.8924 122.168C85.2295 122.499 84.7087 122.958 84.3299 123.545C83.9511 124.133 83.7617 124.805 83.7617 125.562C83.7617 126.301 83.9464 126.964 84.3157 127.551C84.6945 128.129 85.2106 128.583 85.864 128.915C86.5269 129.246 87.2845 129.412 88.1367 129.412ZM88.1367 116.699C88.8754 116.699 89.5288 116.547 90.097 116.244C90.6746 115.941 91.1244 115.52 91.4464 114.98C91.7778 114.44 91.9436 113.83 91.9436 113.148C91.9436 112.466 91.7778 111.865 91.4464 111.344C91.1244 110.823 90.6794 110.416 90.1112 110.122C89.543 109.819 88.8848 109.668 88.1367 109.668C87.3981 109.668 86.74 109.819 86.1623 110.122C85.5847 110.416 85.1348 110.823 84.8129 111.344C84.4909 111.865 84.3299 112.466 84.3299 113.148C84.3299 113.83 84.4909 114.44 84.8129 114.98C85.1443 115.51 85.5989 115.932 86.1765 116.244C86.7542 116.547 87.4076 116.699 88.1367 116.699ZM115.836 134.71C113.298 134.71 111.11 134.109 109.273 132.906C107.436 131.694 106.02 129.956 105.026 127.693C104.032 125.42 103.539 122.688 103.549 119.497C103.558 116.306 104.055 113.598 105.04 111.372C106.034 109.137 107.445 107.437 109.273 106.273C111.11 105.098 113.298 104.511 115.836 104.511C118.373 104.511 120.561 105.098 122.398 106.273C124.245 107.437 125.665 109.137 126.659 111.372C127.654 113.607 128.146 116.315 128.137 119.497C128.137 122.698 127.64 125.435 126.645 127.707C125.651 129.98 124.235 131.718 122.398 132.92C120.57 134.114 118.383 134.71 115.836 134.71ZM115.836 128.957C117.351 128.957 118.577 128.186 119.515 126.642C120.452 125.089 120.916 122.707 120.907 119.497C120.907 117.395 120.694 115.662 120.267 114.298C119.841 112.925 119.249 111.902 118.492 111.23C117.734 110.558 116.849 110.222 115.836 110.222C114.33 110.222 113.113 110.984 112.185 112.509C111.257 114.024 110.788 116.353 110.779 119.497C110.769 121.628 110.973 123.394 111.39 124.795C111.816 126.197 112.412 127.243 113.179 127.935C113.946 128.616 114.832 128.957 115.836 128.957ZM148.456 128.545V127.011C148.456 125.818 148.712 124.715 149.223 123.702C149.744 122.688 150.497 121.874 151.482 121.259C152.467 120.643 153.669 120.335 155.09 120.335C156.539 120.335 157.756 120.643 158.74 121.259C159.735 121.865 160.483 122.674 160.985 123.688C161.496 124.691 161.752 125.799 161.752 127.011V128.545C161.752 129.739 161.496 130.842 160.985 131.855C160.473 132.868 159.721 133.683 158.726 134.298C157.732 134.914 156.52 135.222 155.09 135.222C153.65 135.222 152.438 134.914 151.454 134.298C150.469 133.683 149.721 132.868 149.209 131.855C148.707 130.842 148.456 129.739 148.456 128.545ZM152.988 127.011V128.545C152.988 129.152 153.134 129.734 153.428 130.293C153.731 130.851 154.285 131.131 155.09 131.131C155.914 131.131 156.468 130.861 156.752 130.321C157.036 129.772 157.178 129.18 157.178 128.545V127.011C157.178 126.377 157.041 125.78 156.766 125.222C156.501 124.653 155.942 124.369 155.09 124.369C154.294 124.369 153.745 124.653 153.442 125.222C153.139 125.78 152.988 126.377 152.988 127.011ZM133.371 111.898V110.364C133.371 109.152 133.632 108.044 134.152 107.04C134.683 106.027 135.44 105.217 136.425 104.611C137.41 103.995 138.603 103.688 140.005 103.688C141.454 103.688 142.67 103.995 143.655 104.611C144.65 105.217 145.402 106.027 145.914 107.04C146.425 108.044 146.681 109.152 146.681 110.364V111.898C146.681 113.11 146.42 114.218 145.9 115.222C145.388 116.225 144.635 117.026 143.641 117.622C142.647 118.219 141.435 118.517 140.005 118.517C138.575 118.517 137.363 118.214 136.368 117.608C135.383 117.002 134.635 116.197 134.124 115.193C133.622 114.189 133.371 113.091 133.371 111.898ZM137.945 110.364V111.898C137.945 112.532 138.092 113.124 138.385 113.673C138.688 114.213 139.228 114.483 140.005 114.483C140.838 114.483 141.392 114.213 141.667 113.673C141.951 113.124 142.093 112.532 142.093 111.898V110.364C142.093 109.729 141.96 109.133 141.695 108.574C141.43 108.006 140.866 107.722 140.005 107.722C139.209 107.722 138.665 108.01 138.371 108.588C138.087 109.166 137.945 109.758 137.945 110.364ZM135.516 134L155.516 104.909H159.394L139.394 134H135.516Z" fill="white"/>
</g>
</g>
<defs>
<linearGradient id="paint0_linear_414_390" x1="0" y1="120" x2="240" y2="120" gradientUnits="userSpaceOnUse">
<stop stop-color="#AA367C"/>
<stop offset="1" stop-color="#4A2FBD"/>
</linearGradient>
<clipPath id="clip0_414_390">
<rect width="240" height="240" fill="white"/>
</clipPath>
<clipPath id="clip1_414_390">
<rect width="240" height="240" fill="white"/>
</clipPath>
</defs>
</svg>
