<svg width="240" height="240" viewBox="0 0 240 240" fill="none" xmlns="http://www.w3.org/2000/svg">
<g clip-path="url(#clip0_413_359)">
<g clip-path="url(#clip1_413_359)">
<path d="M228 120C234.627 120 240.062 125.386 239.401 131.981C236.809 157.814 225.889 182.233 208.119 201.456C187.622 223.63 159.518 237.261 129.415 239.63C99.312 241.999 69.4223 232.932 45.7087 214.238C21.9952 195.544 6.20112 168.597 1.4774 138.772C-3.24632 108.948 3.44756 78.4388 20.2236 53.3316C36.9997 28.2244 62.6247 10.3648 91.9866 3.31561C121.348 -3.73354 152.289 0.545994 178.635 15.3005C201.475 28.0918 219.407 47.9408 229.855 71.7088C232.521 77.776 229.017 84.5782 222.714 86.6262V86.6262C216.411 88.6742 209.708 85.1807 206.891 79.1822C198.414 61.1367 184.476 46.079 166.908 36.2404C145.831 24.4368 121.079 21.0132 97.5892 26.6525C74.0998 32.2918 53.5998 46.5795 40.1789 66.6653C26.758 86.751 21.4029 111.158 25.1819 135.018C28.9609 158.877 41.5961 180.435 60.567 195.39C79.5378 210.346 103.45 217.599 127.532 215.704C151.615 213.809 174.097 202.904 190.495 185.165C204.163 170.379 212.766 151.751 215.251 131.969C216.077 125.394 221.373 120 228 120V120Z" fill="url(#paint0_linear_413_359)"/>
<path d="M87.7834 104.511C89.3743 104.511 90.8942 104.772 92.3431 105.293C93.7919 105.804 95.0845 106.623 96.2209 107.75C97.3573 108.867 98.2522 110.34 98.9056 112.168C99.559 113.995 99.8857 116.225 99.8857 118.858C99.8951 121.282 99.6111 123.455 99.0334 125.378C98.4558 127.291 97.6272 128.92 96.5476 130.264C95.4775 131.609 94.1897 132.636 92.684 133.347C91.1783 134.047 89.4974 134.398 87.6414 134.398C85.5959 134.398 83.7919 134.005 82.2294 133.219C80.6764 132.423 79.4311 131.353 78.4936 130.009C77.5656 128.664 77.0116 127.158 76.8317 125.491H83.7493C83.9671 126.457 84.4264 127.187 85.1272 127.679C85.8279 128.162 86.666 128.403 87.6414 128.403C89.4217 128.403 90.7522 127.632 91.6328 126.088C92.5135 124.545 92.9539 122.447 92.9539 119.795H92.7834C92.3762 120.667 91.7986 121.415 91.0504 122.04C90.3118 122.665 89.4548 123.143 88.4794 123.474C87.504 123.806 86.4766 123.972 85.397 123.972C83.6546 123.972 82.1158 123.574 80.7806 122.778C79.4548 121.983 78.4131 120.889 77.6556 119.497C76.9075 118.105 76.5287 116.514 76.5192 114.724C76.5097 112.717 76.9785 110.946 77.9254 109.412C78.8724 107.868 80.1934 106.666 81.8885 105.804C83.5836 104.933 85.5486 104.502 87.7834 104.511ZM87.826 109.909C86.9548 109.909 86.1783 110.113 85.4965 110.52C84.8241 110.927 84.2938 111.476 83.9056 112.168C83.5173 112.859 83.3279 113.635 83.3374 114.497C83.3468 115.359 83.541 116.135 83.9198 116.827C84.308 117.518 84.8336 118.067 85.4965 118.474C86.1688 118.882 86.9359 119.085 87.7976 119.085C88.4415 119.085 89.0381 118.967 89.5874 118.73C90.1366 118.493 90.6148 118.167 91.022 117.75C91.4292 117.324 91.7465 116.831 91.9737 116.273C92.2105 115.714 92.3241 115.117 92.3147 114.483C92.3052 113.64 92.1063 112.873 91.7181 112.182C91.3298 111.491 90.7948 110.941 90.1129 110.534C89.4406 110.117 88.6783 109.909 87.826 109.909ZM115.777 134.71C113.239 134.71 111.052 134.109 109.215 132.906C107.377 131.694 105.962 129.956 104.967 127.693C103.973 125.42 103.481 122.688 103.49 119.497C103.5 116.306 103.997 113.598 104.982 111.372C105.976 109.137 107.387 107.437 109.215 106.273C111.052 105.098 113.239 104.511 115.777 104.511C118.315 104.511 120.502 105.098 122.34 106.273C124.186 107.437 125.607 109.137 126.601 111.372C127.595 113.607 128.088 116.315 128.078 119.497C128.078 122.698 127.581 125.435 126.587 127.707C125.592 129.98 124.177 131.718 122.34 132.92C120.512 134.114 118.324 134.71 115.777 134.71ZM115.777 128.957C117.292 128.957 118.518 128.186 119.456 126.642C120.393 125.089 120.858 122.707 120.848 119.497C120.848 117.395 120.635 115.662 120.209 114.298C119.783 112.925 119.191 111.902 118.433 111.23C117.676 110.558 116.79 110.222 115.777 110.222C114.271 110.222 113.054 110.984 112.126 112.509C111.198 114.024 110.73 116.353 110.72 119.497C110.711 121.628 110.914 123.394 111.331 124.795C111.757 126.197 112.354 127.243 113.121 127.935C113.888 128.616 114.773 128.957 115.777 128.957ZM148.398 128.545V127.011C148.398 125.818 148.653 124.715 149.165 123.702C149.686 122.688 150.438 121.874 151.423 121.259C152.408 120.643 153.611 120.335 155.031 120.335C156.48 120.335 157.697 120.643 158.682 121.259C159.676 121.865 160.424 122.674 160.926 123.688C161.438 124.691 161.693 125.799 161.693 127.011V128.545C161.693 129.739 161.438 130.842 160.926 131.855C160.415 132.868 159.662 133.683 158.668 134.298C157.673 134.914 156.461 135.222 155.031 135.222C153.592 135.222 152.38 134.914 151.395 134.298C150.41 133.683 149.662 132.868 149.151 131.855C148.649 130.842 148.398 129.739 148.398 128.545ZM152.929 127.011V128.545C152.929 129.152 153.076 129.734 153.369 130.293C153.672 130.851 154.226 131.131 155.031 131.131C155.855 131.131 156.409 130.861 156.693 130.321C156.977 129.772 157.119 129.18 157.119 128.545V127.011C157.119 126.377 156.982 125.78 156.707 125.222C156.442 124.653 155.884 124.369 155.031 124.369C154.236 124.369 153.687 124.653 153.384 125.222C153.081 125.78 152.929 126.377 152.929 127.011ZM133.313 111.898V110.364C133.313 109.152 133.573 108.044 134.094 107.04C134.624 106.027 135.382 105.217 136.366 104.611C137.351 103.995 138.545 103.688 139.946 103.688C141.395 103.688 142.612 103.995 143.597 104.611C144.591 105.217 145.344 106.027 145.855 107.04C146.366 108.044 146.622 109.152 146.622 110.364V111.898C146.622 113.11 146.362 114.218 145.841 115.222C145.33 116.225 144.577 117.026 143.582 117.622C142.588 118.219 141.376 118.517 139.946 118.517C138.516 118.517 137.304 118.214 136.31 117.608C135.325 117.002 134.577 116.197 134.065 115.193C133.563 114.189 133.313 113.091 133.313 111.898ZM137.886 110.364V111.898C137.886 112.532 138.033 113.124 138.327 113.673C138.63 114.213 139.17 114.483 139.946 114.483C140.779 114.483 141.333 114.213 141.608 113.673C141.892 113.124 142.034 112.532 142.034 111.898V110.364C142.034 109.729 141.902 109.133 141.636 108.574C141.371 108.006 140.808 107.722 139.946 107.722C139.151 107.722 138.606 108.01 138.313 108.588C138.028 109.166 137.886 109.758 137.886 110.364ZM135.457 134L155.457 104.909H159.335L139.335 134H135.457Z" fill="white"/>
</g>
</g>
<defs>
<linearGradient id="paint0_linear_413_359" x1="0" y1="120" x2="240" y2="120" gradientUnits="userSpaceOnUse">
<stop stop-color="#AA367C"/>
<stop offset="1" stop-color="#4A2FBD"/>
</linearGradient>
<clipPath id="clip0_413_359">
<rect width="240" height="240" fill="white"/>
</clipPath>
<clipPath id="clip1_413_359">
<rect width="240" height="240" fill="white"/>
</clipPath>
</defs>
</svg>
