<svg width="240" height="240" viewBox="0 0 240 240" fill="none" xmlns="http://www.w3.org/2000/svg">
<g clip-path="url(#clip0_414_397)">
<g clip-path="url(#clip1_414_397)">
<path d="M228 120C234.627 120 240.062 125.386 239.401 131.981C236.745 158.45 225.347 183.417 206.828 202.83C185.536 225.15 156.466 238.414 125.653 239.867C94.8397 241.32 64.6504 230.851 41.352 210.634C18.0535 190.416 3.43555 162.003 0.532564 131.293C-2.37043 100.583 6.66457 69.9337 25.762 45.7087C44.8594 21.4838 72.5523 5.54359 103.092 1.19716C133.631 -3.14927 164.672 4.43194 189.77 22.367C211.598 37.9658 227.473 60.3547 235.041 85.8581C236.926 92.2117 232.597 98.521 226.087 99.7628V99.7628C219.577 101.005 213.365 96.6988 211.321 90.3944C205.016 70.9437 192.621 53.9032 175.816 41.8936C155.738 27.5455 130.905 21.4806 106.473 24.9577C82.0418 28.4349 59.8875 41.187 44.6096 60.567C29.3317 79.9469 22.1037 104.466 24.4261 129.034C26.7484 153.603 38.4428 176.333 57.0816 192.507C75.7203 208.681 99.8717 217.056 124.522 215.893C149.173 214.731 172.429 204.12 189.463 186.264C203.72 171.318 212.702 152.257 215.251 131.969C216.077 125.394 221.373 120 228 120V120Z" fill="url(#paint0_linear_414_397)"/>
<path d="M88.8186 104.511C90.4095 104.511 91.9294 104.772 93.3782 105.293C94.8271 105.804 96.1197 106.623 97.2561 107.75C98.3924 108.867 99.2873 110.34 99.9407 112.168C100.594 113.995 100.921 116.225 100.921 118.858C100.93 121.282 100.646 123.455 100.069 125.378C99.4909 127.291 98.6623 128.92 97.5828 130.264C96.5127 131.609 95.2248 132.636 93.7191 133.347C92.2134 134.047 90.5326 134.398 88.6765 134.398C86.6311 134.398 84.8271 134.005 83.2646 133.219C81.7115 132.423 80.4663 131.353 79.5288 130.009C78.6008 128.664 78.0468 127.158 77.8669 125.491H84.7845C85.0023 126.457 85.4615 127.187 86.1623 127.679C86.8631 128.162 87.7011 128.403 88.6765 128.403C90.4568 128.403 91.7873 127.632 92.668 126.088C93.5487 124.545 93.989 122.447 93.989 119.795H93.8186C93.4114 120.667 92.8337 121.415 92.0856 122.04C91.347 122.665 90.49 123.143 89.5146 123.474C88.5392 123.806 87.5117 123.972 86.4322 123.972C84.6898 123.972 83.1509 123.574 81.8157 122.778C80.49 121.983 79.4483 120.889 78.6907 119.497C77.9426 118.105 77.5638 116.514 77.5544 114.724C77.5449 112.717 78.0136 110.946 78.9606 109.412C79.9076 107.868 81.2286 106.666 82.9237 105.804C84.6187 104.933 86.5837 104.502 88.8186 104.511ZM88.8612 109.909C87.99 109.909 87.2134 110.113 86.5316 110.52C85.8593 110.927 85.329 111.476 84.9407 112.168C84.5525 112.859 84.3631 113.635 84.3725 114.497C84.382 115.359 84.5761 116.135 84.9549 116.827C85.3432 117.518 85.8687 118.067 86.5316 118.474C87.204 118.882 87.971 119.085 88.8328 119.085C89.4767 119.085 90.0733 118.967 90.6225 118.73C91.1718 118.493 91.65 118.167 92.0572 117.75C92.4644 117.324 92.7816 116.831 93.0089 116.273C93.2456 115.714 93.3593 115.117 93.3498 114.483C93.3403 113.64 93.1415 112.873 92.7532 112.182C92.365 111.491 91.8299 110.941 91.1481 110.534C90.4758 110.117 89.7134 109.909 88.8612 109.909ZM115.917 134.398C113.796 134.398 111.912 134.014 110.264 133.247C108.616 132.48 107.314 131.424 106.358 130.08C105.411 128.735 104.918 127.191 104.88 125.449H111.699C111.755 126.519 112.191 127.381 113.005 128.034C113.82 128.678 114.79 129 115.917 129C116.798 129 117.579 128.806 118.261 128.418C118.943 128.029 119.478 127.485 119.866 126.784C120.254 126.074 120.444 125.259 120.434 124.341C120.444 123.403 120.25 122.584 119.852 121.884C119.464 121.183 118.924 120.638 118.233 120.25C117.551 119.852 116.765 119.653 115.875 119.653C115.032 119.644 114.232 119.829 113.474 120.207C112.726 120.586 112.158 121.102 111.77 121.756L105.562 120.591L106.826 104.909H125.491V110.577H112.608L111.94 117.438H112.11C112.593 116.633 113.37 115.97 114.44 115.449C115.52 114.919 116.746 114.653 118.119 114.653C119.861 114.653 121.414 115.061 122.778 115.875C124.151 116.68 125.231 117.797 126.017 119.227C126.812 120.657 127.21 122.295 127.21 124.142C127.21 126.14 126.736 127.911 125.789 129.455C124.852 130.998 123.536 132.21 121.841 133.091C120.155 133.962 118.181 134.398 115.917 134.398ZM147.363 128.545V127.011C147.363 125.818 147.618 124.715 148.13 123.702C148.65 122.688 149.403 121.874 150.388 121.259C151.373 120.643 152.576 120.335 153.996 120.335C155.445 120.335 156.662 120.643 157.647 121.259C158.641 121.865 159.389 122.674 159.891 123.688C160.402 124.691 160.658 125.799 160.658 127.011V128.545C160.658 129.739 160.402 130.842 159.891 131.855C159.38 132.868 158.627 133.683 157.632 134.298C156.638 134.914 155.426 135.222 153.996 135.222C152.557 135.222 151.345 134.914 150.36 134.298C149.375 133.683 148.627 132.868 148.115 131.855C147.614 130.842 147.363 129.739 147.363 128.545ZM151.894 127.011V128.545C151.894 129.152 152.041 129.734 152.334 130.293C152.637 130.851 153.191 131.131 153.996 131.131C154.82 131.131 155.374 130.861 155.658 130.321C155.942 129.772 156.084 129.18 156.084 128.545V127.011C156.084 126.377 155.947 125.78 155.672 125.222C155.407 124.653 154.848 124.369 153.996 124.369C153.201 124.369 152.651 124.653 152.348 125.222C152.045 125.78 151.894 126.377 151.894 127.011ZM132.277 111.898V110.364C132.277 109.152 132.538 108.044 133.059 107.04C133.589 106.027 134.346 105.217 135.331 104.611C136.316 103.995 137.509 103.688 138.911 103.688C140.36 103.688 141.577 103.995 142.561 104.611C143.556 105.217 144.309 106.027 144.82 107.04C145.331 108.044 145.587 109.152 145.587 110.364V111.898C145.587 113.11 145.327 114.218 144.806 115.222C144.294 116.225 143.542 117.026 142.547 117.622C141.553 118.219 140.341 118.517 138.911 118.517C137.481 118.517 136.269 118.214 135.275 117.608C134.29 117.002 133.542 116.197 133.03 115.193C132.528 114.189 132.277 113.091 132.277 111.898ZM136.851 110.364V111.898C136.851 112.532 136.998 113.124 137.292 113.673C137.595 114.213 138.134 114.483 138.911 114.483C139.744 114.483 140.298 114.213 140.573 113.673C140.857 113.124 140.999 112.532 140.999 111.898V110.364C140.999 109.729 140.866 109.133 140.601 108.574C140.336 108.006 139.773 107.722 138.911 107.722C138.115 107.722 137.571 108.01 137.277 108.588C136.993 109.166 136.851 109.758 136.851 110.364ZM134.422 134L154.422 104.909H158.3L138.3 134H134.422Z" fill="white"/>
</g>
</g>
<defs>
<linearGradient id="paint0_linear_414_397" x1="0" y1="120" x2="240" y2="120" gradientUnits="userSpaceOnUse">
<stop stop-color="#AA367C"/>
<stop offset="1" stop-color="#4A2FBD"/>
</linearGradient>
<clipPath id="clip0_414_397">
<rect width="240" height="240" fill="white"/>
</clipPath>
<clipPath id="clip1_414_397">
<rect width="240" height="240" fill="white"/>
</clipPath>
</defs>
</svg>
