<svg width="155" height="41" viewBox="0 0 155 41" fill="none" xmlns="http://www.w3.org/2000/svg">
<g clip-path="url(#clip0_428_362)">
<g filter="url(#filter0_d_428_362)">
<path d="M1.70668 31V11.3636H9.56889C11.0135 11.3636 12.2184 11.5778 13.1836 12.006C14.1488 12.4343 14.8743 13.0288 15.3601 13.7894C15.8459 14.5437 16.0888 15.413 16.0888 16.3974C16.0888 17.1644 15.9354 17.8388 15.6286 18.4205C15.3217 18.9957 14.8999 19.4687 14.3629 19.8395C13.8324 20.2038 13.2251 20.4627 12.5412 20.6161V20.8079C13.2891 20.8398 13.989 21.0508 14.641 21.4407C15.2994 21.8306 15.8331 22.3771 16.2422 23.0803C16.6513 23.777 16.8558 24.608 16.8558 25.5732C16.8558 26.6151 16.5969 27.5451 16.0792 28.3633C15.5678 29.1751 14.8104 29.8175 13.8068 30.2905C12.8033 30.7635 11.5664 31 10.0962 31H1.70668ZM5.85831 27.6058H9.2429C10.3999 27.6058 11.2436 27.3853 11.7741 26.9442C12.3047 26.4968 12.57 25.9023 12.57 25.1609C12.57 24.6175 12.4389 24.1381 12.1768 23.7227C11.9148 23.3072 11.5408 22.9812 11.055 22.7447C10.5756 22.5082 10.0036 22.3899 9.33878 22.3899H5.85831V27.6058ZM5.85831 19.5806H8.93608C9.50497 19.5806 10.0099 19.4815 10.451 19.2834C10.8984 19.0788 11.25 18.7912 11.5057 18.4205C11.7678 18.0497 11.8988 17.6055 11.8988 17.0877C11.8988 16.3782 11.6463 15.8061 11.1413 15.3714C10.6428 14.9368 9.93324 14.7195 9.01278 14.7195H5.85831V19.5806ZM19.5573 31V11.3636H27.3044C28.7874 11.3636 30.053 11.6289 31.1013 12.1594C32.156 12.6836 32.9582 13.4283 33.5079 14.3935C34.064 15.3523 34.3421 16.4805 34.3421 17.7781C34.3421 19.082 34.0608 20.2038 33.4983 21.1435C32.9358 22.0767 32.1208 22.7926 31.0534 23.2912C29.9923 23.7898 28.7075 24.0391 27.199 24.0391H22.0118V20.7024H26.5278C27.3204 20.7024 27.9788 20.5937 28.5029 20.3764C29.0271 20.1591 29.417 19.8331 29.6727 19.3984C29.9347 18.9638 30.0658 18.4237 30.0658 17.7781C30.0658 17.1261 29.9347 16.5763 29.6727 16.1289C29.417 15.6815 29.0239 15.3427 28.4933 15.1126C27.9692 14.8761 27.3076 14.7578 26.5086 14.7578H23.7089V31H19.5573ZM30.1617 22.0639L35.042 31H30.4589L25.684 22.0639H30.1617ZM49.4049 11.3636H53.5566V24.1158C53.5566 25.5476 53.2146 26.8004 52.5306 27.8743C51.8531 28.9482 50.9039 29.7855 49.683 30.3864C48.4621 30.9808 47.0399 31.2781 45.4163 31.2781C43.7863 31.2781 42.3609 30.9808 41.14 30.3864C39.9191 29.7855 38.9699 28.9482 38.2923 27.8743C37.6148 26.8004 37.276 25.5476 37.276 24.1158V11.3636H41.4276V23.761C41.4276 24.5089 41.5906 25.1737 41.9166 25.7553C42.249 26.337 42.7156 26.794 43.3165 27.1264C43.9173 27.4588 44.6173 27.625 45.4163 27.625C46.2217 27.625 46.9216 27.4588 47.5161 27.1264C48.1169 26.794 48.5803 26.337 48.9063 25.7553C49.2387 25.1737 49.4049 24.5089 49.4049 23.761V11.3636ZM73.3967 11.3636V31H69.8107L61.2678 18.641H61.1239V31H56.9723V11.3636H60.6158L69.0916 23.7131H69.2642V11.3636H73.3967ZM94.8715 21.1818C94.8715 23.3232 94.4656 25.1449 93.6539 26.647C92.8485 28.1491 91.749 29.2965 90.3556 30.0891C88.9685 30.8754 87.4088 31.2685 85.6766 31.2685C83.9316 31.2685 82.3655 30.8722 80.9784 30.0795C79.5914 29.2869 78.4951 28.1396 77.6897 26.6374C76.8843 25.1353 76.4816 23.3168 76.4816 21.1818C76.4816 19.0405 76.8843 17.2188 77.6897 15.7166C78.4951 14.2145 79.5914 13.0703 80.9784 12.2841C82.3655 11.4915 83.9316 11.0952 85.6766 11.0952C87.4088 11.0952 88.9685 11.4915 90.3556 12.2841C91.749 13.0703 92.8485 14.2145 93.6539 15.7166C94.4656 17.2188 94.8715 19.0405 94.8715 21.1818ZM90.6624 21.1818C90.6624 19.7947 90.4546 18.625 90.0392 17.6726C89.6301 16.7202 89.0516 15.9979 88.3037 15.5057C87.5558 15.0135 86.6801 14.7674 85.6766 14.7674C84.673 14.7674 83.7973 15.0135 83.0495 15.5057C82.3016 15.9979 81.7199 16.7202 81.3044 17.6726C80.8953 18.625 80.6908 19.7947 80.6908 21.1818C80.6908 22.5689 80.8953 23.7386 81.3044 24.6911C81.7199 25.6435 82.3016 26.3658 83.0495 26.858C83.7973 27.3501 84.673 27.5962 85.6766 27.5962C86.6801 27.5962 87.5558 27.3501 88.3037 26.858C89.0516 26.3658 89.6301 25.6435 90.0392 24.6911C90.4546 23.7386 90.6624 22.5689 90.6624 21.1818Z" fill="#E242A3"/>
</g>
<g filter="url(#filter1_d_428_362)">
<path d="M117.032 18.2383H112.833C112.756 17.695 112.599 17.2124 112.363 16.7905C112.126 16.3622 111.823 15.9979 111.452 15.6974C111.081 15.397 110.653 15.1669 110.167 15.0071C109.688 14.8473 109.167 14.7674 108.604 14.7674C107.588 14.7674 106.703 15.0199 105.949 15.5249C105.194 16.0234 104.609 16.7521 104.194 17.7109C103.778 18.6634 103.571 19.8203 103.571 21.1818C103.571 22.5817 103.778 23.7578 104.194 24.7102C104.616 25.6626 105.204 26.3817 105.958 26.8675C106.712 27.3533 107.585 27.5962 108.576 27.5962C109.132 27.5962 109.646 27.5227 110.119 27.3757C110.599 27.2287 111.024 27.0146 111.395 26.7333C111.765 26.4457 112.072 26.0973 112.315 25.6882C112.564 25.2791 112.737 24.8125 112.833 24.2884L117.032 24.3075C116.924 25.2088 116.652 26.0781 116.217 26.9155C115.789 27.7464 115.211 28.4911 114.482 29.1495C113.76 29.8015 112.897 30.3192 111.893 30.7028C110.896 31.0799 109.768 31.2685 108.509 31.2685C106.757 31.2685 105.191 30.8722 103.81 30.0795C102.436 29.2869 101.349 28.1396 100.55 26.6374C99.7578 25.1353 99.3615 23.3168 99.3615 21.1818C99.3615 19.0405 99.7642 17.2188 100.57 15.7166C101.375 14.2145 102.468 13.0703 103.849 12.2841C105.229 11.4915 106.783 11.0952 108.509 11.0952C109.646 11.0952 110.701 11.255 111.673 11.5746C112.651 11.8942 113.517 12.3608 114.271 12.9744C115.025 13.5817 115.639 14.3263 116.112 15.2085C116.591 16.0906 116.898 17.1005 117.032 18.2383ZM122.32 31.2493C121.687 31.2493 121.144 31.0256 120.69 30.5781C120.243 30.1243 120.019 29.581 120.019 28.9482C120.019 28.3217 120.243 27.7848 120.69 27.3374C121.144 26.8899 121.687 26.6662 122.32 26.6662C122.934 26.6662 123.471 26.8899 123.931 27.3374C124.391 27.7848 124.621 28.3217 124.621 28.9482C124.621 29.37 124.513 29.7567 124.295 30.1083C124.084 30.4535 123.806 30.7315 123.461 30.9425C123.116 31.147 122.736 31.2493 122.32 31.2493ZM141.072 17.7109C140.938 17.2443 140.749 16.832 140.506 16.4741C140.263 16.1097 139.966 15.8029 139.615 15.5536C139.269 15.2979 138.873 15.103 138.426 14.9688C137.985 14.8345 137.496 14.7674 136.959 14.7674C135.955 14.7674 135.073 15.0167 134.312 15.5153C133.558 16.0138 132.97 16.7393 132.548 17.6918C132.126 18.6378 131.915 19.7947 131.915 21.1626C131.915 22.5305 132.123 23.6939 132.539 24.6527C132.954 25.6115 133.542 26.3434 134.303 26.8484C135.063 27.3469 135.962 27.5962 136.997 27.5962C137.937 27.5962 138.739 27.43 139.404 27.0977C140.075 26.7589 140.586 26.2827 140.938 25.669C141.296 25.0554 141.475 24.3299 141.475 23.4925L142.318 23.6172H137.256V20.4915H145.473V22.9652C145.473 24.6911 145.109 26.174 144.38 27.4141C143.651 28.6477 142.648 29.6001 141.369 30.2713C140.091 30.9361 138.627 31.2685 136.978 31.2685C135.137 31.2685 133.52 30.8626 132.126 30.0508C130.733 29.2326 129.646 28.0724 128.866 26.5703C128.093 25.0618 127.706 23.272 127.706 21.201C127.706 19.6094 127.936 18.1903 128.397 16.9439C128.863 15.6911 129.515 14.63 130.353 13.7607C131.19 12.8913 132.165 12.2298 133.277 11.7759C134.389 11.3221 135.594 11.0952 136.892 11.0952C138.004 11.0952 139.039 11.2582 139.998 11.5842C140.957 11.9038 141.807 12.3576 142.549 12.9457C143.296 13.5337 143.907 14.2337 144.38 15.0455C144.853 15.8509 145.157 16.7393 145.291 17.7109H141.072ZM150.902 31.2493C150.269 31.2493 149.726 31.0256 149.272 30.5781C148.825 30.1243 148.601 29.581 148.601 28.9482C148.601 28.3217 148.825 27.7848 149.272 27.3374C149.726 26.8899 150.269 26.6662 150.902 26.6662C151.516 26.6662 152.053 26.8899 152.513 27.3374C152.973 27.7848 153.203 28.3217 153.203 28.9482C153.203 29.37 153.095 29.7567 152.877 30.1083C152.666 30.4535 152.388 30.7315 152.043 30.9425C151.698 31.147 151.318 31.2493 150.902 31.2493Z" fill="#5436D7"/>
</g>
</g>
<defs>
<filter id="filter0_d_428_362" x="-1.79332" y="7.59521" width="100.165" height="27.1829" filterUnits="userSpaceOnUse" color-interpolation-filters="sRGB">
<feFlood flood-opacity="0" result="BackgroundImageFix"/>
<feColorMatrix in="SourceAlpha" type="matrix" values="0 0 0 0 0 0 0 0 0 0 0 0 0 0 0 0 0 0 127 0" result="hardAlpha"/>
<feOffset/>
<feGaussianBlur stdDeviation="1.75"/>
<feColorMatrix type="matrix" values="0 0 0 0 0.8875 0 0 0 0 0.258854 0 0 0 0 0.638209 0 0 0 1 0"/>
<feBlend mode="normal" in2="BackgroundImageFix" result="effect1_dropShadow_428_362"/>
<feBlend mode="normal" in="SourceGraphic" in2="effect1_dropShadow_428_362" result="shape"/>
</filter>
<filter id="filter1_d_428_362" x="95.8615" y="7.59521" width="60.8418" height="27.1732" filterUnits="userSpaceOnUse" color-interpolation-filters="sRGB">
<feFlood flood-opacity="0" result="BackgroundImageFix"/>
<feColorMatrix in="SourceAlpha" type="matrix" values="0 0 0 0 0 0 0 0 0 0 0 0 0 0 0 0 0 0 127 0" result="hardAlpha"/>
<feOffset/>
<feGaussianBlur stdDeviation="1.75"/>
<feColorMatrix type="matrix" values="0 0 0 0 0.330443 0 0 0 0 0.210417 0 0 0 0 0.841667 0 0 0 1 0"/>
<feBlend mode="normal" in2="BackgroundImageFix" result="effect1_dropShadow_428_362"/>
<feBlend mode="normal" in="SourceGraphic" in2="effect1_dropShadow_428_362" result="shape"/>
</filter>
<clipPath id="clip0_428_362">
<rect width="155" height="41" fill="white"/>
</clipPath>
</defs>
</svg>
